<mxfile host="Electron" modified="2020-11-20T01:31:34.757Z" agent="5.0 (X11; Linux x86_64) AppleWebKit/537.36 (KHTML, like Gecko) draw.io/13.3.9 Chrome/83.0.4103.119 Electron/9.0.5 Safari/537.36" etag="SvhlCOzym2bG11kXrMHW" compressed="false" version="13.3.9" type="device">
  <diagram id="W21upMZyVLAyHN0sAPv0" name="Page-1">
    <mxGraphModel dx="1038" dy="1736" grid="1" gridSize="10" guides="0" tooltips="1" connect="1" arrows="1" fold="1" page="1" pageScale="1" pageWidth="850" pageHeight="1100" math="0" shadow="0">
      <root>
        <mxCell id="0" />
        <mxCell id="1" parent="0" />
        <mxCell id="OUWKCUL6RZ-1nESzooJH-27" value="" style="rounded=1;whiteSpace=wrap;html=1;fillColor=none;dashed=1;" parent="1" vertex="1">
          <mxGeometry x="260" y="200" width="120" height="160" as="geometry" />
        </mxCell>
        <mxCell id="mqqWP-_iaSo7gYqGqVhJ-5" value="" style="rounded=1;whiteSpace=wrap;html=1;dashed=1;fillColor=none;" parent="1" vertex="1">
          <mxGeometry x="460" y="-30" width="120" height="220" as="geometry" />
        </mxCell>
        <mxCell id="OUWKCUL6RZ-1nESzooJH-7" value="" style="endArrow=classic;html=1;fillColor=#ffe6cc;strokeColor=#d79b00;" parent="1" source="mqqWP-_iaSo7gYqGqVhJ-22" target="UjXm60ALDMmRyu_Ofdnu-3" edge="1">
          <mxGeometry width="50" height="50" relative="1" as="geometry">
            <mxPoint x="210" y="-20" as="sourcePoint" />
            <mxPoint x="260" y="-70" as="targetPoint" />
            <Array as="points">
              <mxPoint x="429" y="30" />
            </Array>
          </mxGeometry>
        </mxCell>
        <mxCell id="mqqWP-_iaSo7gYqGqVhJ-18" value="" style="endArrow=none;html=1;dashed=1;fillColor=#f5f5f5;strokeColor=#666666;strokeWidth=2;" parent="1" edge="1">
          <mxGeometry width="50" height="50" relative="1" as="geometry">
            <mxPoint x="60" y="300" as="sourcePoint" />
            <mxPoint x="600" y="300" as="targetPoint" />
          </mxGeometry>
        </mxCell>
        <mxCell id="mqqWP-_iaSo7gYqGqVhJ-8" value="" style="rounded=1;whiteSpace=wrap;html=1;fillColor=#dae8fc;strokeColor=#6c8ebf;" parent="1" vertex="1">
          <mxGeometry x="80" y="80" width="150" height="100" as="geometry" />
        </mxCell>
        <mxCell id="mqqWP-_iaSo7gYqGqVhJ-6" style="edgeStyle=orthogonalEdgeStyle;rounded=0;orthogonalLoop=1;jettySize=auto;html=1;" parent="1" source="OUWKCUL6RZ-1nESzooJH-27" target="mqqWP-_iaSo7gYqGqVhJ-5" edge="1">
          <mxGeometry relative="1" as="geometry">
            <Array as="points">
              <mxPoint x="400" y="240" />
              <mxPoint x="400" y="180" />
            </Array>
            <mxPoint x="360" y="240" as="sourcePoint" />
          </mxGeometry>
        </mxCell>
        <mxCell id="mqqWP-_iaSo7gYqGqVhJ-2" value="printer graphics DLL" style="rounded=0;whiteSpace=wrap;html=1;" parent="1" vertex="1">
          <mxGeometry x="100" y="130" width="120" height="20" as="geometry" />
        </mxCell>
        <mxCell id="mqqWP-_iaSo7gYqGqVhJ-4" value="printer interface DLL" style="rounded=0;whiteSpace=wrap;html=1;" parent="1" vertex="1">
          <mxGeometry x="100" y="100" width="120" height="20" as="geometry" />
        </mxCell>
        <mxCell id="mqqWP-_iaSo7gYqGqVhJ-9" value="user" style="rounded=1;whiteSpace=wrap;html=1;fillColor=#f8cecc;strokeColor=#b85450;" parent="1" vertex="1">
          <mxGeometry x="210" y="20" width="40" height="20" as="geometry" />
        </mxCell>
        <mxCell id="mqqWP-_iaSo7gYqGqVhJ-16" value="&lt;span&gt;printer driver&lt;/span&gt;" style="text;html=1;align=center;verticalAlign=middle;resizable=0;points=[];autosize=1;" parent="1" vertex="1">
          <mxGeometry x="90" y="80" width="80" height="20" as="geometry" />
        </mxCell>
        <mxCell id="mqqWP-_iaSo7gYqGqVhJ-20" value="user space" style="text;html=1;align=center;verticalAlign=middle;resizable=0;points=[];autosize=1;" parent="1" vertex="1">
          <mxGeometry x="60" y="280" width="70" height="20" as="geometry" />
        </mxCell>
        <mxCell id="mqqWP-_iaSo7gYqGqVhJ-21" value="kernel space" style="text;html=1;align=center;verticalAlign=middle;resizable=0;points=[];autosize=1;" parent="1" vertex="1">
          <mxGeometry x="60" y="300" width="80" height="20" as="geometry" />
        </mxCell>
        <mxCell id="mqqWP-_iaSo7gYqGqVhJ-22" value="application" style="rounded=1;whiteSpace=wrap;html=1;fillColor=#ffe6cc;strokeColor=#d79b00;" parent="1" vertex="1">
          <mxGeometry x="390" y="-100" width="80" height="20" as="geometry" />
        </mxCell>
        <mxCell id="mqqWP-_iaSo7gYqGqVhJ-25" value="printer" style="rounded=1;whiteSpace=wrap;html=1;" parent="1" vertex="1">
          <mxGeometry x="620" y="320" width="60" height="20" as="geometry" />
        </mxCell>
        <mxCell id="mqqWP-_iaSo7gYqGqVhJ-26" value="" style="endArrow=none;html=1;strokeWidth=2;fillColor=#f5f5f5;strokeColor=#666666;" parent="1" edge="1">
          <mxGeometry width="50" height="50" relative="1" as="geometry">
            <mxPoint x="600" y="380" as="sourcePoint" />
            <mxPoint x="600" y="-120" as="targetPoint" />
          </mxGeometry>
        </mxCell>
        <mxCell id="mqqWP-_iaSo7gYqGqVhJ-28" value="" style="rounded=0;whiteSpace=wrap;html=1;" parent="1" vertex="1">
          <mxGeometry x="460" y="110" width="100" height="60" as="geometry" />
        </mxCell>
        <mxCell id="mqqWP-_iaSo7gYqGqVhJ-32" value="&lt;span&gt;spoolss.dll&lt;/span&gt;" style="text;html=1;align=center;verticalAlign=middle;resizable=0;points=[];autosize=1;" parent="1" vertex="1">
          <mxGeometry x="460" y="110" width="70" height="20" as="geometry" />
        </mxCell>
        <mxCell id="mqqWP-_iaSo7gYqGqVhJ-30" value="&lt;b&gt;WritePrinter&lt;/b&gt;" style="rounded=0;whiteSpace=wrap;html=1;" parent="1" vertex="1">
          <mxGeometry x="460" y="130" width="80" height="20" as="geometry" />
        </mxCell>
        <mxCell id="mqqWP-_iaSo7gYqGqVhJ-31" value="&lt;font color=&quot;#999999&quot;&gt;&lt;span&gt;@wine/dlls/winspool.drv/info.c&lt;/span&gt;&lt;br&gt;&lt;span&gt;@winxp/printscan/print/spooler/spoolss/dll/spooler.c&lt;/span&gt;&lt;/font&gt;" style="text;html=1;align=left;verticalAlign=middle;resizable=0;points=[];autosize=1;" parent="1" vertex="1">
          <mxGeometry x="540" y="130" width="290" height="30" as="geometry" />
        </mxCell>
        <mxCell id="OUWKCUL6RZ-1nESzooJH-2" value="" style="rounded=0;whiteSpace=wrap;html=1;" parent="1" vertex="1">
          <mxGeometry x="460" width="100" height="40" as="geometry" />
        </mxCell>
        <mxCell id="OUWKCUL6RZ-1nESzooJH-4" value="spoolsv.exe" style="rounded=0;whiteSpace=wrap;html=1;" parent="1" vertex="1">
          <mxGeometry x="460" y="70" width="100" height="20" as="geometry" />
        </mxCell>
        <mxCell id="OUWKCUL6RZ-1nESzooJH-8" value="" style="endArrow=classic;html=1;fillColor=#ffe6cc;strokeColor=#d79b00;" parent="1" source="mqqWP-_iaSo7gYqGqVhJ-22" target="OUWKCUL6RZ-1nESzooJH-23" edge="1">
          <mxGeometry width="50" height="50" relative="1" as="geometry">
            <mxPoint x="220" y="10" as="sourcePoint" />
            <mxPoint x="330" y="220" as="targetPoint" />
            <Array as="points">
              <mxPoint x="430" y="-50" />
              <mxPoint x="310" y="-50" />
            </Array>
          </mxGeometry>
        </mxCell>
        <mxCell id="OUWKCUL6RZ-1nESzooJH-9" value="" style="endArrow=classic;html=1;fillColor=#dae8fc;strokeColor=#6c8ebf;" parent="1" source="mqqWP-_iaSo7gYqGqVhJ-5" target="mqqWP-_iaSo7gYqGqVhJ-4" edge="1">
          <mxGeometry width="50" height="50" relative="1" as="geometry">
            <mxPoint x="250" as="sourcePoint" />
            <mxPoint x="300" y="-50" as="targetPoint" />
            <Array as="points">
              <mxPoint x="520" y="-40" />
              <mxPoint x="360" y="-40" />
              <mxPoint x="360" y="110" />
            </Array>
          </mxGeometry>
        </mxCell>
        <mxCell id="OUWKCUL6RZ-1nESzooJH-11" value="RPC" style="endArrow=classic;html=1;fillColor=#ffe6cc;strokeColor=#d79b00;" parent="1" source="OUWKCUL6RZ-1nESzooJH-2" target="OUWKCUL6RZ-1nESzooJH-4" edge="1">
          <mxGeometry x="-0.3333" width="50" height="50" relative="1" as="geometry">
            <mxPoint x="240" y="-10" as="sourcePoint" />
            <mxPoint x="290" y="-60" as="targetPoint" />
            <mxPoint as="offset" />
          </mxGeometry>
        </mxCell>
        <mxCell id="OUWKCUL6RZ-1nESzooJH-13" value="" style="endArrow=classic;html=1;fillColor=#ffe6cc;strokeColor=#d79b00;" parent="1" source="OUWKCUL6RZ-1nESzooJH-4" target="mqqWP-_iaSo7gYqGqVhJ-28" edge="1">
          <mxGeometry width="50" height="50" relative="1" as="geometry">
            <mxPoint x="380" y="110" as="sourcePoint" />
            <mxPoint x="430" y="60" as="targetPoint" />
          </mxGeometry>
        </mxCell>
        <mxCell id="OUWKCUL6RZ-1nESzooJH-14" value="" style="endArrow=classic;html=1;" parent="1" source="mqqWP-_iaSo7gYqGqVhJ-28" target="mqqWP-_iaSo7gYqGqVhJ-25" edge="1">
          <mxGeometry width="50" height="50" relative="1" as="geometry">
            <mxPoint x="450" y="320" as="sourcePoint" />
            <mxPoint x="500" y="270" as="targetPoint" />
            <Array as="points">
              <mxPoint x="510" y="330" />
            </Array>
          </mxGeometry>
        </mxCell>
        <mxCell id="mqqWP-_iaSo7gYqGqVhJ-29" value="&lt;span&gt;spooler&lt;/span&gt;" style="text;html=1;align=center;verticalAlign=middle;resizable=0;points=[];autosize=1;" parent="1" vertex="1">
          <mxGeometry x="470" y="-30" width="50" height="20" as="geometry" />
        </mxCell>
        <mxCell id="OUWKCUL6RZ-1nESzooJH-17" value="configure" style="endArrow=classic;html=1;fillColor=#f8cecc;strokeColor=#b85450;" parent="1" source="mqqWP-_iaSo7gYqGqVhJ-9" target="mqqWP-_iaSo7gYqGqVhJ-4" edge="1">
          <mxGeometry x="-0.8462" width="50" height="50" relative="1" as="geometry">
            <mxPoint x="260" y="90" as="sourcePoint" />
            <mxPoint x="310" y="40" as="targetPoint" />
            <Array as="points">
              <mxPoint x="230" y="70" />
              <mxPoint x="160" y="70" />
            </Array>
            <mxPoint as="offset" />
          </mxGeometry>
        </mxCell>
        <mxCell id="OUWKCUL6RZ-1nESzooJH-18" value="raw data" style="endArrow=classic;html=1;" parent="1" source="mqqWP-_iaSo7gYqGqVhJ-2" target="mqqWP-_iaSo7gYqGqVhJ-30" edge="1">
          <mxGeometry x="0.3043" width="50" height="50" relative="1" as="geometry">
            <mxPoint x="230" y="230" as="sourcePoint" />
            <mxPoint x="280" y="180" as="targetPoint" />
            <Array as="points" />
            <mxPoint as="offset" />
          </mxGeometry>
        </mxCell>
        <mxCell id="OUWKCUL6RZ-1nESzooJH-22" value="&lt;font color=&quot;#999999&quot;&gt;@winxp/windows/core/ntgdi/client/output.c&lt;/font&gt;" style="text;html=1;align=left;verticalAlign=middle;resizable=0;points=[];autosize=1;" parent="1" vertex="1">
          <mxGeometry x="360" y="220" width="240" height="20" as="geometry" />
        </mxCell>
        <mxCell id="OUWKCUL6RZ-1nESzooJH-23" value="" style="rounded=0;whiteSpace=wrap;html=1;fillColor=#ffffff;" parent="1" vertex="1">
          <mxGeometry x="260" y="220" width="100" height="80" as="geometry" />
        </mxCell>
        <mxCell id="OUWKCUL6RZ-1nESzooJH-24" value="gdi32full.dll" style="rounded=0;whiteSpace=wrap;html=1;fillColor=#ffffff;" parent="1" vertex="1">
          <mxGeometry x="260" y="300" width="100" height="20" as="geometry" />
        </mxCell>
        <mxCell id="OUWKCUL6RZ-1nESzooJH-25" value="win32u.dll" style="rounded=0;whiteSpace=wrap;html=1;fillColor=#ffffff;" parent="1" vertex="1">
          <mxGeometry x="200" y="320" width="160" height="20" as="geometry" />
        </mxCell>
        <mxCell id="OUWKCUL6RZ-1nESzooJH-26" value="&lt;span&gt;gdi32.dll&lt;/span&gt;" style="text;html=1;align=center;verticalAlign=middle;resizable=0;points=[];autosize=1;" parent="1" vertex="1">
          <mxGeometry x="260" y="220" width="60" height="20" as="geometry" />
        </mxCell>
        <mxCell id="OUWKCUL6RZ-1nESzooJH-19" value="&lt;b&gt;StartDocA/W&lt;/b&gt;" style="rounded=0;whiteSpace=wrap;html=1;" parent="1" vertex="1">
          <mxGeometry x="260" y="240" width="80" height="20" as="geometry" />
        </mxCell>
        <mxCell id="OUWKCUL6RZ-1nESzooJH-20" value="&lt;b&gt;EndDoc&lt;/b&gt;" style="rounded=0;whiteSpace=wrap;html=1;" parent="1" vertex="1">
          <mxGeometry x="260" y="260" width="80" height="20" as="geometry" />
        </mxCell>
        <mxCell id="OUWKCUL6RZ-1nESzooJH-29" value="GDI" style="text;html=1;align=center;verticalAlign=middle;resizable=0;points=[];autosize=1;" parent="1" vertex="1">
          <mxGeometry x="270" y="200" width="40" height="20" as="geometry" />
        </mxCell>
        <mxCell id="OUWKCUL6RZ-1nESzooJH-31" value="&lt;font color=&quot;#999999&quot;&gt;NtGdiEngXXX&lt;/font&gt;" style="text;html=1;align=left;verticalAlign=middle;resizable=0;points=[];autosize=1;" parent="1" vertex="1">
          <mxGeometry x="360" y="320" width="90" height="20" as="geometry" />
        </mxCell>
        <mxCell id="OUWKCUL6RZ-1nESzooJH-32" value="&lt;font color=&quot;#999999&quot;&gt;@winxp/windows/core/ntgdi/gre/ntgdi.c&lt;/font&gt;" style="text;html=1;align=left;verticalAlign=middle;resizable=0;points=[];autosize=1;" parent="1" vertex="1">
          <mxGeometry x="360" y="300" width="220" height="20" as="geometry" />
        </mxCell>
        <mxCell id="5qIvvKBdBN0BCXnBoauh-4" value="computer" style="text;html=1;align=center;verticalAlign=middle;resizable=0;points=[];autosize=1;" parent="1" vertex="1">
          <mxGeometry x="530" y="-120" width="70" height="20" as="geometry" />
        </mxCell>
        <mxCell id="5qIvvKBdBN0BCXnBoauh-5" value="other device" style="text;html=1;align=center;verticalAlign=middle;resizable=0;points=[];autosize=1;" parent="1" vertex="1">
          <mxGeometry x="600" y="-120" width="80" height="20" as="geometry" />
        </mxCell>
        <mxCell id="UjXm60ALDMmRyu_Ofdnu-1" value="&lt;span&gt;winspool.drv&lt;/span&gt;" style="text;html=1;align=center;verticalAlign=middle;resizable=0;points=[];autosize=1;" parent="1" vertex="1">
          <mxGeometry x="460" width="80" height="20" as="geometry" />
        </mxCell>
        <mxCell id="UjXm60ALDMmRyu_Ofdnu-3" value="&lt;b&gt;StartDocDlg&lt;/b&gt;" style="rounded=0;whiteSpace=wrap;html=1;" parent="1" vertex="1">
          <mxGeometry x="460" y="20" width="80" height="20" as="geometry" />
        </mxCell>
        <mxCell id="UjXm60ALDMmRyu_Ofdnu-5" value="&lt;font color=&quot;#999999&quot;&gt;@wine/dlls/winspool.drv/info.c&lt;br&gt;@winxp/printscan/print/spooler/spoolss/client/winspool.c&lt;br&gt;&lt;/font&gt;" style="text;html=1;align=left;verticalAlign=middle;resizable=0;points=[];autosize=1;" parent="1" vertex="1">
          <mxGeometry x="540" y="20" width="310" height="30" as="geometry" />
        </mxCell>
        <mxCell id="OUWKCUL6RZ-1nESzooJH-16" value="" style="endArrow=classic;html=1;fillColor=#ffe6cc;strokeColor=#d79b00;" parent="1" source="OUWKCUL6RZ-1nESzooJH-19" target="UjXm60ALDMmRyu_Ofdnu-3" edge="1">
          <mxGeometry width="50" height="50" relative="1" as="geometry">
            <mxPoint x="360" y="290" as="sourcePoint" />
            <mxPoint x="480" y="290" as="targetPoint" />
            <Array as="points">
              <mxPoint x="420" y="250" />
              <mxPoint x="420" y="30" />
            </Array>
          </mxGeometry>
        </mxCell>
      </root>
    </mxGraphModel>
  </diagram>
</mxfile>
